<svg width="256" height="256" viewBox="0 0 256 256" fill="none" xmlns="http://www.w3.org/2000/svg" role="img" aria-labelledby="title desc">
  <title id="title">ITK Chatbot</title>
  <desc id="desc">A custom ITK Lost and Found chatbot mark using ITK blue and orange.</desc>
  <defs>
    <filter id="softShadow" x="22" y="24" width="214" height="214" filterUnits="userSpaceOnUse" color-interpolation-filters="sRGB">
      <feDropShadow dx="0" dy="14" stdDeviation="14" flood-color="#0F172A" flood-opacity="0.18"/>
    </filter>
  </defs>

  <circle cx="128" cy="128" r="112" fill="#F8F9FA"/>
  <path d="M198 54C213.464 54 226 66.536 226 82V163C226 178.464 213.464 191 198 191H144.5L113.5 216C108.963 219.659 102.177 216.429 102.177 210.6V191H58C42.536 191 30 178.464 30 163V82C30 66.536 42.536 54 58 54H198Z" fill="#0A61AA" filter="url(#softShadow)"/>
  <path d="M201 58.5C212.874 63.004 221 74.485 221 87.5V101C206.363 101 194.5 89.137 194.5 74.5C194.5 68.718 196.982 63.099 201 58.5Z" fill="#F5B759" opacity="0.95"/>

  <path d="M101 52V40.5C101 35.806 104.806 32 109.5 32H146.5C151.194 32 155 35.806 155 40.5V52" stroke="#0A61AA" stroke-width="10" stroke-linecap="round"/>
  <circle cx="128" cy="29" r="12" fill="#F5B759" stroke="#FFFFFF" stroke-width="6"/>

  <rect x="61" y="78" width="134" height="83" rx="30" fill="#FFFFFF"/>
  <circle cx="97" cy="120" r="11" fill="#0A61AA"/>
  <circle cx="159" cy="120" r="11" fill="#0A61AA"/>
  <circle cx="101" cy="116" r="3.5" fill="#FFFFFF"/>
  <circle cx="163" cy="116" r="3.5" fill="#FFFFFF"/>
  <path d="M112 140C121.57 147.333 134.43 147.333 144 140" stroke="#0A61AA" stroke-width="8" stroke-linecap="round"/>

  <rect x="73" y="171" width="110" height="28" rx="14" fill="#FFFFFF" opacity="0.96"/>
  <path d="M91 185H107" stroke="#F5B759" stroke-width="7" stroke-linecap="round"/>
  <path d="M120 185H165" stroke="#0A61AA" stroke-width="7" stroke-linecap="round"/>

  <path d="M44 113H30" stroke="#F5B759" stroke-width="10" stroke-linecap="round"/>
  <path d="M226 113H212" stroke="#F5B759" stroke-width="10" stroke-linecap="round"/>
  <circle cx="30" cy="113" r="9" fill="#FFFFFF" stroke="#0A61AA" stroke-width="6"/>
  <circle cx="226" cy="113" r="9" fill="#FFFFFF" stroke="#0A61AA" stroke-width="6"/>

  <text x="128" y="88" text-anchor="middle" fill="#084E88" font-family="Figtree, Arial, sans-serif" font-size="18" font-weight="800" letter-spacing="0">ITK</text>
</svg>
